<svg width="30" height="30" viewBox="0 0 190 158" fill="none" xmlns="http://www.w3.org/2000/svg">
<g id="brush" filter="url(#filter0_d)">
<g id="brush_2">
<g id="Group 1">
<g id="brush_3">
<path id="Rectangle 1" d="M56.1606 102.495L133.005 10.8762C135.032 8.45939 138.564 7.9605 141.183 9.72118C143.874 11.5301 144.693 15.1093 143.057 17.9044L81.2895 123.415L56.1606 102.495Z" fill="black" stroke="white"/>
<g id="Ellipse 1" filter="url(#filter1_d)">
<path d="M87.1122 91.4554C95.3432 99.8283 94.8729 117.254 84.7335 124.057C74.5942 130.86 43.7453 126.133 38.6139 135.671C42.6937 131.767 45.2112 110.283 54.9266 93.7357C59.7513 85.518 78.8813 83.0824 87.1122 91.4554Z" fill="black"/>
<path d="M87.1122 91.4554C95.3432 99.8283 94.8729 117.254 84.7335 124.057C74.5942 130.86 43.7453 126.133 38.6139 135.671C42.6937 131.767 45.2112 110.283 54.9266 93.7357C59.7513 85.518 78.8813 83.0824 87.1122 91.4554Z" stroke="white"/>
</g>
</g>
</g>
<path id="Ellipse 3" d="M91.7118 98.6122C95.0754 107.985 89.4849 117.109 79.2377 120.48C68.9904 123.852 61.3097 110.634 61.3788 103.748C61.4479 96.8622 48.6325 93.0046 67.1868 86.8995C77.0973 83.6386 89.8473 87.5178 91.7118 98.6122Z" fill="black" stroke="white"/>
</g>
</g>
<defs>
<filter id="filter0_d" x="34.1588" y="8.17196" width="114.24" height="135.844" filterUnits="userSpaceOnUse" color-interpolation-filters="sRGB">
<feFlood flood-opacity="0" result="BackgroundImageFix"/>
<feColorMatrix in="SourceAlpha" type="matrix" values="0 0 0 0 0 0 0 0 0 0 0 0 0 0 0 0 0 0 127 0"/>
<feOffset dy="4"/>
<feGaussianBlur stdDeviation="2"/>
<feColorMatrix type="matrix" values="0 0 0 0 0 0 0 0 0 0 0 0 0 0 0 0 0 0 0.25 0"/>
<feBlend mode="normal" in2="BackgroundImageFix" result="effect1_dropShadow"/>
<feBlend mode="normal" in="SourceGraphic" in2="effect1_dropShadow" result="shape"/>
</filter>
<filter id="filter1_d" x="34.1588" y="85.762" width="63.2058" height="58.2541" filterUnits="userSpaceOnUse" color-interpolation-filters="sRGB">
<feFlood flood-opacity="0" result="BackgroundImageFix"/>
<feColorMatrix type="matrix" values="0 0 0 0 0 0 0 0 0 0 0 0 0 0 0 0 0 0 0.25 0"/>
<feBlend mode="normal" in="SourceGraphic" in2="effect1_dropShadow" result="shape"/>
</filter>
</defs>
</svg>
