<svg width="140" height="112" viewBox="0 0 140 112" fill="none" xmlns="http://www.w3.org/2000/svg">
<g id="eraseall_tool">
<path id="Rectangle 1" d="M0 10C0 4.47716 4.47715 0 10 0H116C121.523 0 126 4.47715 126 10V90C126 95.5228 121.523 100 116 100H10C4.47715 100 0 95.5228 0 90V10Z" fill="#C4C4C4"/>
<rect id="Rectangle 3" x="15" y="13" width="100" height="3" fill="black"/>
<rect id="Rectangle 4" x="15" y="36" width="36" height="3" fill="black"/>
<g id="erasertool">
<rect id="Rectangle 1_2" x="51" y="97.6466" width="28.5237" height="2.5748" fill="black"/>
<path id="Polygon 1" d="M87.8273 69.2168L107.978 47.0796C111.324 43.4038 116.974 43.1818 120.598 46.5837L132.036 57.3211C135.66 60.7231 135.885 66.4607 132.54 70.1365L120.211 83.6801L106.873 98.3341L83.1553 98.7723L77.7295 93.6789C74.1055 90.2769 73.88 84.5393 77.2259 80.8635L87.8273 69.2168Z" fill="black" stroke="white" stroke-width="2"/>
<path id="Rectangle 2" d="M117.491 86.2531L117.858 86.5928L118.192 86.2208L133.292 69.403C137.166 65.088 136.857 58.3961 132.602 54.4562L122.921 45.4919C118.666 41.552 112.076 41.856 108.202 46.171L93.1018 62.9887L92.7677 63.3608L93.1346 63.7005L117.491 86.2531Z" fill="#C4C4C4" stroke="white"/>
</g>
</g>
</svg>
