<svg width="266" height="250" viewBox="0 0 266 250" fill="none" xmlns="http://www.w3.org/2000/svg">
<g id="highlighter">
<g id="highlighter_2">
<path id="Rectangle 2" d="M192.399 19.8659L225.88 47.9599C231.591 52.7524 232.336 61.2676 227.544 66.9791L173.871 130.944L119.707 85.4946L173.379 21.5299C178.172 15.8184 186.687 15.0734 192.399 19.8659Z" fill="black" stroke="white" stroke-width="3"/>
<path id="Rectangle 3" d="M72.3872 175.885L93.8033 193.855L82.3842 207.464L47.0362 206.097L72.3872 175.885Z" fill="black" stroke="white" stroke-width="3"/>
<path id="Rectangle 1" d="M117.778 87.7927L171.943 133.242L118.27 197.207C113.477 202.918 104.962 203.663 99.2506 198.871L65.7695 170.777C60.058 165.984 59.313 157.469 64.1056 151.757L117.778 87.7927Z" fill="black" stroke="white" stroke-width="3"/>
</g>
<rect id="Rectangle 4" width="79" height="4.94483" transform="matrix(0.653631 -0.756813 -0.756813 -0.653631 136.635 86.9232)" fill="white"/>
</g>
</svg>
