<svg width="30" height="30" viewBox="-10 -10 100 100" fill="none" xmlns="http://www.w3.org/2000/svg">
<g id="pencil">
<g id="pencil_2">
<g id="pencil_3">
<g id="Group 2">
<rect id="Rectangle 1" x="-0.219783" y="-1.3688" width="22.1333" height="50.8078" transform="matrix(0.822035 0.573299 -0.602252 0.795504 48.1282 12.1769)" fill="black" stroke="white" stroke-width="2"/>
<path id="Rectangle 2" d="M64.8209 24.6391L65.643 25.2125L66.2452 24.417L68.3801 21.5972C72.0612 16.7352 70.9724 9.95318 65.9482 6.4491C60.9241 2.94501 53.8671 4.0458 50.1861 8.90778L48.0512 11.7276L47.4489 12.5231L48.271 13.0964L64.8209 24.6391Z" fill="black" stroke="white" stroke-width="2"/>
<g id="nip">
<g id="Group 1">
<path id="Polygon 1" d="M12.9061 75.6859L12.4294 77.8244L14.4043 76.7339L33.7675 66.043L33.829 66.0091C34.3943 65.6971 34.9142 65.4101 35.2877 65.1271C35.689 64.823 36.1289 64.371 36.1707 63.6857C36.2125 63.0005 35.8302 62.5082 35.4682 62.1668C35.1314 61.849 34.6495 61.513 34.1255 61.1477L34.0685 61.1079L22.3709 52.9494L22.314 52.9097C21.7916 52.5453 21.3109 52.2099 20.8929 52.001C20.4434 51.7764 19.8387 51.5799 19.1736 51.8283C18.5084 52.0767 18.1954 52.6159 18.017 53.075C17.8511 53.5021 17.726 54.0636 17.59 54.6739L17.5752 54.7405L12.9061 75.6859Z" fill="black" stroke="white" stroke-width="2"/>
</g>
</g>
</g>
</g>
</g>
<rect id="Rectangle 3" width="26.2094" height="4.26261" transform="matrix(-0.607786 0.794101 -0.809991 -0.586442 51.8338 21.486)" fill="white"/>
</g>
</svg>
